<!--?xml version="1.0" encoding="utf-8"?-->
<!-- Svg Vector Icons : http://www.onlinewebfonts.com/icon -->

<svg version="1.1" xmlns="http://www.w3.org/2000/svg" xmlns:xlink="http://www.w3.org/1999/xlink" x="0px" y="0px" viewBox="0 0 256 256" enable-background="new 0 0 256 256" xml:space="preserve">
<metadata> Svg Vector Icons : http://www.onlinewebfonts.com/icon </metadata>
<g><g><g><path fill="#0958d6" data-title="Layer 0" xs="0" d="M119.7,10.4c-10.2,1.1-19,3.5-28.3,7.9C67.2,29.8,49.9,52,44.1,79c-1,4.6-1.2,6.9-1.2,17s0.2,12.3,1.2,16.9c4.1,18.3,12.5,33.3,25.6,45.6l4.7,4.5v38.8c0,34.3,0.1,39,0.8,40.5c1.4,3.1,4.5,4.3,7.7,3.2c1-0.4,11.4-6.8,23.2-14.3c11.7-7.5,21.5-13.6,21.8-13.6c0.3,0,10.4,6.3,22.5,14c13,8.4,22.6,14.1,23.7,14.4c2.4,0.4,5.2-1.1,6.4-3.4c0.9-1.7,1-4.8,1-40.6v-38.7l6.5-6.6c16.2-16.2,24.4-35.1,25.1-57.9c0.4-13.7-1.2-23-6.4-35.9c-10.3-25.4-34-45.2-60.9-50.8C136.3,10,128.2,9.5,119.7,10.4z M142.6,24.4c22.4,5,40.1,18.7,50.2,38.9c10.9,21.5,10.1,47.7-1.9,68.7c-10.5,18.4-27.5,30.7-48.7,35.4c-7.2,1.5-21.4,1.5-28.6-0.1c-22.8-5-40.6-18.8-51-39.6c-2-4-4.9-12.6-6-18c-1.3-6.6-1.4-20.9-0.1-27.4c2.9-14.4,9.3-26.7,19.1-36.9c11.5-11.8,24.4-18.7,40.6-21.6C121.6,22.9,137.4,23.2,142.6,24.4z M91.3,173.3c4.9,2.5,13.4,5.4,19.9,6.8c4.6,1,6.9,1.2,16.7,1.2c9.8,0,12.1-0.2,16.7-1.2c6.5-1.4,15-4.3,19.9-6.8c2-1,3.8-1.8,3.9-1.8c0.2,0,0.3,12.6,0.3,28.1c0,15.4-0.1,28.1-0.3,28.1s-8.9-5.5-19.4-12.2c-20-12.8-20.9-13.2-24-11.6c-0.6,0.4-9.3,5.8-19.3,12.2c-10,6.4-18.3,11.6-18.4,11.6c-0.2,0-0.3-12.7-0.3-28.1c0-15.5,0.1-28.1,0.3-28.1C87.5,171.5,89.3,172.3,91.3,173.3z"/><path fill="#4287f5" data-title="Layer 1" xs="1" d="M124.6,32.4c-1.2,0.6-3.2,4.2-9.9,17.6l-8.4,16.8l-17.9,2.5c-12.2,1.7-18.5,2.9-19.6,3.5c-2,1.1-3.2,4.1-2.7,6.6c0.3,1.5,2.6,4,13.6,14.6c7.3,7.1,13.2,13.2,13.2,13.7c0,0.5-1.3,8.7-3,18.4c-3,17.2-3,17.5-2.1,19.4c0.5,1.1,1.5,2.3,2.3,2.9c2.9,1.9,4.2,1.4,21.5-7.6l16.3-8.5l16.1,8.4c17.4,9.1,18.5,9.4,21.9,7.4c3.2-2,3.2-3-0.1-22.1c-1.6-9.4-3-17.5-3-18.1c0-0.6,4.9-5.7,12.8-13.4c12.5-12.1,14.3-14.1,14.3-16.4c0-2.1-1.7-4.8-3.4-5.6c-0.9-0.4-9.6-1.9-19.4-3.3l-17.8-2.5l-8.2-16.6c-8.9-18-9.3-18.6-13.2-18.6C126.9,31.6,125.4,32,124.6,32.4z M134,64.9c5.2,10.6,6.1,12.2,7.7,13c1.1,0.6,6.7,1.6,14.5,2.8c7,1,12.8,1.9,12.9,2c0.1,0.1-4.2,4.5-9.6,9.8c-7.7,7.6-9.8,10-10.1,11.3c-0.2,1,0.7,7,2,14.5c1.3,7.1,2.2,12.9,2.1,12.9c-0.1,0-5.5-2.8-12-6.2c-8.5-4.5-12.3-6.2-13.6-6.2c-1.3,0-5.1,1.7-13.7,6.3c-6.5,3.4-11.9,6.1-12,6c-0.1-0.1,0.9-6,2.2-13.1c1.3-7.5,2.1-13.6,2-14.5c-0.3-1.1-3.2-4.3-10.1-11.1c-5.4-5.2-9.7-9.6-9.6-9.7c0.2-0.2,24.9-3.9,25.8-3.9c0.3,0,1.3-0.7,2.3-1.6c1.3-1.1,3.3-4.7,7.3-13c3-6.3,5.6-11.4,5.8-11.3C128,52.8,130.8,58.2,134,64.9z"/></g></g></g>
</svg>