<?xml version="1.0" encoding="utf-8"?>
<!-- Svg Vector Icons : http://www.onlinewebfonts.com/icon -->
<!DOCTYPE svg PUBLIC "-//W3C//DTD SVG 1.1//EN" "http://www.w3.org/Graphics/SVG/1.1/DTD/svg11.dtd">
<svg version="1.1" xmlns="http://www.w3.org/2000/svg" xmlns:xlink="http://www.w3.org/1999/xlink" x="0px" y="0px" viewBox="0 0 256 256" enable-background="new 0 0 256 256" xml:space="preserve">
  <metadata> Svg Vector Icons : http://www.onlinewebfonts.com/icon </metadata>
  <g>
    <g>
      <g>
        <path fill="#000000" stroke="#000000" stroke-width="10" d="M43.7,10.9c-2.4,1.1-4.3,3.1-5.3,5.5c-0.7,1.6-0.8,13.5-0.8,111.7c0,105.9,0,109.9,0.9,111.8c1.1,2.4,3.1,4.3,5.5,5.3c1.6,0.7,10.8,0.8,84,0.8c78.5,0,82.3,0,84.2-0.9c2.5-1.1,4.9-3.8,5.5-6.2c0.4-1.3,0.5-30.9,0.5-93.1c0-90.5,0-91.3-1-93.5c-1.5-3.3-37.6-39.4-41-41.1l-2.4-1.2h-64.1C48.4,10,45.6,10,43.7,10.9z M162.5,41.1c0,21,0,21.5,3,23.3c1.6,0.9,2.4,1,20.9,1h19.3l-0.1,84.1l-0.1,84.2h-77.7H50.1l-0.1-105.1c0-57.8,0-105.4,0.1-105.8c0.1-0.4,11.9-0.6,56.3-0.6h56.1V41.1z M188.7,39.9l13.4,13.4h-13.5h-13.4V39.9c0-7.3,0-13.4,0.1-13.4C175.3,26.5,181.4,32.5,188.7,39.9z"/>
      </g>
    </g>
  </g>
</svg>
