<svg xmlns="http://www.w3.org/2000/svg" width="32" height="32" fill="none"><rect width="32" height="32" fill="#fff" rx="6"/><path fill="#000" d="M25.309 17.134v3.814c-1.822.003-3.59-.657-5.016-1.873a8.635 8.635 0 0 1-2.422-3.406 1.049 1.049 0 0 0-.454-.531.94.94 0 0 0-.666-.103.99.99 0 0 0-.575.373 1.124 1.124 0 0 0-.203.908c.11.698.078 1.414-.096 2.097a4.998 4.998 0 0 1-.908 1.858 4.585 4.585 0 0 1-1.553 1.275 4.274 4.274 0 0 1-1.91.454c-.146 0-.281 0-.42-.02a4.353 4.353 0 0 1-2.256-.92 4.827 4.827 0 0 1-1.538-2.14 4.817 4.817 0 0 0-1.668-2.218 4.317 4.317 0 0 0-2.538-.835H3v-3.814h.086c1.822-.003 3.59.658 5.018 1.874 1.06.9 1.892 2.07 2.421 3.404.09.228.25.417.454.533.204.116.44.153.666.103a.99.99 0 0 0 .576-.373 1.122 1.122 0 0 0 .201-.91 5.215 5.215 0 0 1 .096-2.098 4.999 4.999 0 0 1 .91-1.86 4.587 4.587 0 0 1 1.554-1.274 4.274 4.274 0 0 1 1.91-.452c.147 0 .283 0 .422.02a4.354 4.354 0 0 1 2.27.93 4.832 4.832 0 0 1 1.54 2.168 4.81 4.81 0 0 0 1.667 2.19 4.317 4.317 0 0 0 2.518.826ZM29 13.171h-3.691v3.963h3.69v-3.963Z"/></svg>